# xmcd
#
# Track frame offsets: 
#        150
#        22478
#        32876
#        50866
#        62364
#        73501
#        81306
#        90407
#        99455
#        111495
#        113070
#        129637
#        140592
#
# Disc length: 2083 seconds
#
# Revision: 0
# Processed by: cddbd v1.5.2PL0 Copyright (c) Steve Scherf et al.
# Submitted via: ExactAudioCopy v1.3
#
DISCID=be08210d
DTITLE=Janis Joplin - Little Girl Blue Early California Sessions
DYEAR=1900
DGENRE=Blues
TTITLE0=Honky Tonk Angel
TTITLE1=Empty Pillow On My Bed
TTITLE2=Red Mountain Burgundy
TTITLE3=No Reason For Living
TTITLE4=Mary Jane
TTITLE5=Gospel Ship
TTITLE6=Stealin' Stealin'
TTITLE7=Leavin' This Morning
TTITLE8=Daddy,Daddy,Daddy
TTITLE9=Intro To Careless Love
TTITLE10=Careless Love
TTITLE11=Bourgeois Blues
TTITLE12=Black Mountain Blues
EXTD=
EXTT0=
EXTT1=
EXTT2=
EXTT3=
EXTT4=
EXTT5=
EXTT6=
EXTT7=
EXTT8=
EXTT9=
EXTT10=
EXTT11=
EXTT12=
PLAYORDER=
